<svg width="22" height="20" viewBox="0 0 22 20" fill="none" xmlns="http://www.w3.org/2000/svg">
<path d="M18.114 3.63601C18.9497 4.47174 19.6127 5.4639 20.065 6.55583C20.5173 7.64777 20.7501 8.8181 20.7501 10C20.7501 11.1819 20.5173 12.3522 20.065 13.4442C19.6127 14.5361 18.9497 15.5283 18.114 16.364M15.463 6.28801C16.4474 7.27255 17.0004 8.60778 17.0004 10C17.0004 11.3922 16.4474 12.7275 15.463 13.712M5.75 6.25001L10.47 1.53001C10.5749 1.42525 10.7085 1.35393 10.8539 1.32504C10.9993 1.29616 11.15 1.31101 11.2869 1.36772C11.4239 1.42443 11.541 1.52046 11.6234 1.64368C11.7058 1.76689 11.7499 1.91177 11.75 2.06001V17.94C11.7499 18.0883 11.7058 18.2331 11.6234 18.3563C11.541 18.4796 11.4239 18.5756 11.2869 18.6323C11.15 18.689 10.9993 18.7039 10.8539 18.675C10.7085 18.6461 10.5749 18.5748 10.47 18.47L5.75 13.75H3.51C2.63 13.75 1.806 13.243 1.572 12.396C1.35752 11.6154 1.24922 10.8095 1.25 10C1.25 9.17001 1.362 8.36701 1.572 7.60401C1.806 6.75601 2.63 6.25001 3.51 6.25001H5.75Z" stroke="white" stroke-width="2" stroke-linecap="round" stroke-linejoin="round"/>
</svg>
