<svg width="22" height="20" viewBox="0 0 22 20" fill="none" xmlns="http://www.w3.org/2000/svg">
<path d="M16.25 7.75001L18.5 10M18.5 10L20.75 12.25M18.5 10L20.75 7.75001M18.5 10L16.25 12.25M5.75 6.25001L10.47 1.53001C10.575 1.42519 10.7086 1.35385 10.8541 1.325C10.9996 1.29614 11.1504 1.31108 11.2874 1.36791C11.4244 1.42475 11.5415 1.52093 11.6238 1.6443C11.7062 1.76767 11.7501 1.91268 11.75 2.06101V17.94C11.7499 18.0883 11.7058 18.2331 11.6234 18.3563C11.541 18.4796 11.4239 18.5756 11.2869 18.6323C11.15 18.689 10.9993 18.7039 10.8539 18.675C10.7085 18.6461 10.5749 18.5748 10.47 18.47L5.75 13.75H3.51C2.63 13.75 1.806 13.244 1.572 12.396C1.35752 11.6154 1.24922 10.8095 1.25 10C1.25 9.17001 1.362 8.36701 1.572 7.60501C1.806 6.75701 2.63 6.25001 3.51 6.25001H5.75Z" stroke="white" stroke-width="2" stroke-linecap="round" stroke-linejoin="round"/>
</svg>
